<svg xmlns="http://www.w3.org/2000/svg" viewBox="0 0 128 128"><rect width="128" height="128" rx="26" fill="#114237"/><svg x="18" y="12" width="92" height="104" viewBox="616 2 1220 1075"><path fill="#ec7018" d="M660.4 3.7c-1.2 1.2-1.4 9.4-1.4 51.6v50.1l-6.4 17c-15.4 41-24.3 65.4-30.3 83.5l-6.5 19.4 2.2 5.6c4.7 11.6 23.4 48 38.7 75.6 2.8 5 6.7 12.3 8.7 16.3l3.6 7.2v92.6l37.1 42.5c20.5 23.3 41.8 47.7 47.6 54.1l10.4 11.8h139.1l27.7-7.5a403 403 0 0 1 30.7-7.5c3.3 0 87.5 10.7 87.9 11.2l2.7 37.8 2.5 37.5-7.1 14.2-7 14.2-37.7-19.1-37.7-19.2-8.3-25c-9-26.8-10.1-28.7-14.9-26.3-2.4 1.2-2.7 2.5-6.7 26.1l-4.2 24.8 12.6 24.5 12.6 24.4 28.6 24.9 28.6 25h51.9l31.8-31.7c20.8-20.8 31.9-31.2 32.2-30.2l11.1 50.7c8.1 36.8 22 101.2 26.4 122.2 3.8 18.2 3.9 19.2 5.6 57.8 2.6 58.1 1.7 72-6.2 90.6-9.1 21.6-28.6 38.2-60.3 51.2-22 9-24.3 9.6-38.5 10.1-21.8.8-41.5-4.6-75-20.4-45.7-21.6-54.8-23.1-61.5-9.7-4.6 9.2-2.4 32.8 4.4 46.9 21.3 43.8 96.1 60.1 181.6 39.5 80.1-19.3 145-69.7 169.3-131.5 7.5-19 8.4-23.6 13.7-74.3l9.5-88.7 9.5-89c2.7-26.4 5.2-49.5 5.6-51.4l.5-3.4 30.8 30.6 30.7 30.7h51.9l19.8-17.2 19.7-17.2v-6.9c0-6.4-.1-6.8-1.7-5.6l-19.7 17.1c-14 12.3-18.3 15.5-19.2 14.5-2.9-3.2-20.5-35-19.8-35.7.5-.5 14.9-7.9 31.9-16.6l31.2-15.8.9-6.4.7-6.3-34.5 17.5c-19 9.7-35 17.6-35.6 17.6a60 60 0 0 1-8-13.8l-6.8-13.7 2.4-37.5c1.3-20.6 2.6-37.6 2.7-37.8.4-.5 84.6-11.2 87.9-11.2a400 400 0 0 1 30.8 7.5l27.9 7.5h138.8l6.9-7.8c3.9-4.2 25.3-28.6 47.6-54.1l40.6-46.4v-93l5.4-10.1 15.1-28.1c11.2-20.7 26.1-50.1 30-59.4l2.6-6.3-2.1-7.2c-3.4-11.2-14.7-43.2-28.4-79.8L1793 105V55.1c0-42-.2-50.2-1.4-51.4-1.3-1.2-20.4-1.4-136.1-1-149.8.5-138.8 0-157.1 7.3-33.3 13.3-72 49.9-105.3 99.6-6 8.9-11 16.7-11.3 17.4-.2.8-4.5-1.5-11.3-6a216 216 0 0 0-87-32.6 833 833 0 0 0-115-.1 221 221 0 0 0-87 32.7c-6.6 4.4-11.1 6.7-11.3 6-.2-.6-5.3-8.4-11.2-17.3C1020.3 51.8 978 15.1 938.4 5c-6.9-1.8-14.7-1.9-141.9-2.3-115.9-.4-134.8-.2-136.1 1m176.1 10 39.9.6-4.4 2L799.5 46l-39 16-74.2 30.4c-8.9 3.6-16.4 6.6-16.7 6.6s-.6-19.4-.6-43V13h63.8c35 0 81.7.3 103.7.7m95.7.7c32.2 6.2 69.4 35.2 104 81.2 8.6 11.3 20 28.5 19.5 29.1-.2.2-9.1-3.1-19.8-7.3l-61.4-24.1L907 66.8l-45.9-18-20.3-8.1 3.3-1.4c7.7-3.3 54.8-22.6 59.4-24.4a63 63 0 0 1 28.7-.5m616.1.5a2717 2717 0 0 1 62.6 25.7q.2.4-1.5 1l-66.9 26.2-126.9 49.8a230 230 0 0 1-19.3 7.1c-.6-.7 14.7-22.9 24.7-35.9 11.5-15 40.4-44.1 51.7-52.1a128 128 0 0 1 46.3-22.2c10.1-2 23.1-1.8 29.3.4M1783 56c0 23.6-.2 43-.5 43s-7.8-3-16.8-6.6L1728 76.9l-42.5-17.4-39-16-41.5-17-26.5-10.8c-4-1.6 26.9-2.2 127.8-2.5l76.7-.2zm-934-.5c45.7 17.9 56 22 56 22.5 0 .3-14.5 4.8-32.2 9.9-35.4 10.3-60.4 17.6-103.8 30.5a587 587 0 0 1-28.8 8.1c-.4-.4 1.5-2.2 48.2-44.4 21.4-19.4 39.4-35 40-34.7zm804.2 17.2 43.6 39.3c8.3 7.4 15.1 13.8 15.1 14.2.1.4-2.7-.2-6.1-1.2l-53.8-15.7c-26.1-7.7-60.7-17.8-76.8-22.3s-28.9-8.7-28.5-9.1l77.4-30.8a675 675 0 0 1 29.1 25.6M798.5 58.9c-.6.4-36.8 33.2-80.6 72.7l-81.7 73.8-2.2 1.9 1.9-5.4 32.3-90.4c.3-.3 20.5-8.6 61.8-25.5l47.5-19.6c19.6-8.1 22.9-9.3 21-7.5m885 11.3 44.5 18.2 36.7 15.1 19.2 7.9 2.6 7.1c12.3 34 31.3 88 31.1 88.2s-5.8-4.8-12.7-11l-81.4-73.6-70-63.4c-1.4-1.3-1.1-1.3 30 11.5m-757.6 27 12.7 22.4c3.5 6.1 6.4 11.5 6.4 12.1 0 1.2-.5 1.4-27.5 12.5l-42 17.3-42 17.3-72.4 29.9c-2 .9-2 1 31.7-50.1l29.7-45 40.5-11.7 47-13.8c3.6-1.1 7.2-2 8-2 1-.1 4 4.2 7.9 11.1m626.3-5.7c70.8 20 76.3 21.7 78.2 23.8 2.6 3.1 61.7 93 61.3 93.4-.2.1-6.6-2.4-14.3-5.6-7.6-3.2-28.7-12-46.9-19.4-69.3-28.5-122.7-50.6-123.1-51-.9-.8 26.1-46.7 27.3-46.3.6.3 8.5 2.5 17.5 5.1M975 105c71.6 28 85 33.4 85 33.9 0 .8-55.9 71.6-56.8 71.8-.7.3-5.9-8.7-31.7-54.7L958 132c-3.9-6.7-24-42.2-24-42.5 0-.6-1.7-1.2 41 15.5m544-15.5a659 659 0 0 1-26 44.4c0 1.8-43.3 77.2-44.2 76.9-.9-.4-56.8-71.1-56.8-71.9 0-.3 4.2-2.2 9.3-4.2L1514 90.5c3.8-1.5 5-1.8 5-1M1221.9 98c.7.4 5.3 8.1 10.1 17.1l19.8 36.9a423 423 0 0 1 10.9 20.7l-29.7 6.2-128.3 26.4-6.7 1.5-11-33.7c-6.1-18.5-11-34.1-11-34.6 0-1.6 18-13.2 30.2-19.5a220 220 0 0 1 86.3-22.3c10.3-.3 27.8.4 29.4 1.3m54.1.1a219 219 0 0 1 69.7 20.8c12.6 6.6 30.3 18 30.3 19.5 0 1.7-44.5 137.6-45 137.6q-.6-.2-1.6-2.3c-.9-2-17.2-32.2-61.6-114.7L1235 97.7c0-1.6 25-1.3 41 .4m-470.7 22.1c-5.5 9-129.6 196.4-130.1 196.6-.8.2-46.2-87.8-46.2-89.5 0-1.1 88.4-81.3 91.4-82.9 1.2-.7 13.8-4.7 28.1-8.9l40.5-12c15.9-4.8 17.5-5.1 16.3-3.3m864.7 5.4 42.2 12.5 19.7 5.8 45.6 41.2c25 22.7 45.5 41.6 45.5 42.1 0 1.8-45.3 89.9-46.1 89.6a3412 3412 0 0 1-46-68.8l-57.7-87.5c-21.4-32.4-27.2-41.5-26.5-41.5.4 0 10.9 3 23.3 6.6m-712.5 27.2 19.7 35.1a585 585 0 0 1 13.6 24.7c-.2.1-18.1-4.2-39.8-9.7a780 780 0 0 0-41.5-9.7c-1 .2-2.6 1.5-3.4 2.9-1.4 2.5-1 3.3 8.4 20.5 15.4 28 18.7 34.4 18 34.4-1 0-134.9-44.1-135.4-44.6-.8-.8.9-1.6 21-9.8l98.4-40.5c18.7-7.7 34.2-14.1 34.5-14.1a95 95 0 0 1 6.5 10.8m581.5 4.7 94.4 38.9c20.6 8.4 22.3 9.2 21.5 10-.8.7-135.1 44.7-135.4 44.4-.2-.2 5.9-11.8 13.5-25.8 7.7-14 14-26.1 14-26.9 0-1.9-3-5.1-4.8-5.1-.8 0-18.6 4.3-39.6 9.5-45.2 11.3-41.7 10.5-41.3 9.7 7-13.4 40.4-70.1 41.2-69.8zm-484.4 29.1-14.6 77.9c-10.7 58.1-11.1 59.8-11.5 59.3-.2-.2-4.9-23-10.4-50.7l-10.1-50.4 3.6-4.6c15.2-19.6 47.9-60.8 48.2-60.7.1.2-2.2 13.3-5.2 29.2m363 2.4c13.8 17.3 25.3 32 25.7 32.7.6 1-18.8 101.1-19.8 102.1-.4.4-1.8-6.1-4.5-21.3l-9.5-51.5-17.2-92c-.7-3.2-3.5-6.4 25.3 30m-305.1 96.5a7353 7353 0 0 0 42.2 127.4c1.7 2.7 4 3.8-55.2-27.6l-47.5-25.2c-8.5-4.5-15.9-8.6-16.3-9a456 456 0 0 1 6.8-41.7l25.6-137.7c1.2-7 2.6-12.4 3-12s19 57 41.4 125.8M1391 210l17.6 94.4c4.7 25.2 8.2 46.2 7.7 46.6-2.9 2.9-117 61.8-117.8 60.8-.1-.2 5.2-16.7 11.7-36.8l56.9-174c13.7-42.1 14.2-43.5 14.6-41zm-125.8-8.9-2.2 98.6v9.2l-45.7 47.4-46 47.3a995 995 0 0 1 6.2-33.7L1193 289l13.7-71.1 4.5-23.6 26.1-5.5c14.4-3.1 26.6-5.5 27.2-5.4.6.2.8 7.1.7 17.7m-65.8-2.4-8.9 46.8a18948 18948 0 0 0-26.1 136.5c-1.5 8-3 14.8-3.3 15.2-.4.4-14-39.9-30.2-89.7-24.6-75.3-29.3-90.5-28-90.9.9-.3 17.1-3.7 36.1-7.6l45.5-9.4c13.8-3 15.4-3.1 14.9-.9m93.7 29.8c28.4 52.7 32.9 61.3 32.9 62.6 0 .8-12.5 39.6-27.7 86.4-21.5 65.6-27.9 84.1-28.1 81.2-.3-4 4.3-215.2 5.4-243.7.4-11.2 1-17 1.6-16zM959.4 216c19.8 5 36.4 9.4 36.8 9.8.5.5.7 27.3.6 59.8l-.3 58.9-10.1-18.5-36.8-67.4c-28-51.2-28.3-51.6-27.1-51.6zm570.2-6.8c-.8 1.3-6.5 11.5-12.6 22.8l-35.7 65.5c-13.5 24.7-25 45.4-25.4 46-.5.5-.9-24.9-.9-58.6v-59.5l36.3-9.1c41.2-10.4 40.3-10.2 38.3-7.1m-674.7 27.7c40.3 13.3 73 24.5 72.7 24.9-1.1 1-159 64.1-159.4 63.7-.2-.2-2.8-21.9-5.8-48.2l-5.8-51.4-.6-3.7 12.2-5c6.7-2.8 12.5-4.9 12.8-4.8zm833.5-17.8 7.7 3.2-.5 3.6-5.1 43.6c-6.2 54.8-6.3 55.6-6.7 56-.3.4-145.8-57.7-155.8-62.2l-4.5-2 74-24.5 74-24.5 4.6 1.8c2.5.9 8 3.2 12.3 5m-937.9 47.4 5.8 51.5 2.2 18.4 29.7 24.6c16.4 13.5 30.4 25.2 31.3 26.1 1.5 1.4-.8 2.1-26.2 7.7-36.6 8.1-107.1 23.8-110.5 24.7l-2.8.7v-90.7l32.8-49.7c23.5-35.7 32.9-49.2 33.4-48 .3.9 2.3 16.5 4.3 34.7m1009.3 44.6 12.2 18.6v44.6c0 24.6-.2 44.7-.4 44.7-.7 0-72.3-31.1-80.7-35l-2.5-1.2 3.8-33.1 8.3-74.2c2.5-22.6 4.8-42.1 5.1-43.4.5-2.4 2.9 1 54.2 79m-795.5-3.4 25.7 47c2.3 4 3.7 7.3 3.3 7.3l-41.3 6c-88.1 13.2-115.6 17.1-117.1 16.7-.9-.3-15-11.4-31.3-24.8-27.1-22.2-29.5-24.5-27.5-25.4 5.3-2.4 164.5-66.3 165.5-66.4a580 580 0 0 1 22.7 39.6m633.1-4.9c46.6 18.7 85 34.2 85.1 34.4.6.5-4.1 39.7-4.7 40.4-.4.3-11.1-4-24-9.6l-41.4-18.1c-18.1-7.9-21.9-9-24.2-6.7s-1.1 5.7 7.7 22.4q9 16.9 7.7 17.2c-1.4.3-31.4-4-103.5-14.8l-40.8-6c-1.1 0 1.4-4.8 25.2-48.3 18.4-33.8 25.4-45.7 26.5-45.4zm-167.3 90.9c-8.3 16.4-15 29.3-15 28.8-.1-1.3 25.3-128.2 27.7-138.5l1.7-7.5.3 43.7.2 43.8zM1013.4 305c8.3 45.6 23.6 141 23.6 146.5 0 .5-6.5-18.3-14.5-41.9l-14.5-42.9.1-44.1c0-24.3.2-43.7.5-43.1.2.5 2.4 12 4.8 25.5m230.6 68.1-21.1 70.4c-19.3 64.8-22.3 74.5-22.8 74.5s-7.6-21.6-16.2-47.9l-15.5-47.8 43.5-45.1c23.9-24.8 43.6-45 43.8-44.8s-5.1 18.5-11.7 40.7m16 52.9-1.7 73.5-15.9 48.7c-8.7 26.9-16.1 48.8-16.4 48.8s-4.9-13.4-10.3-29.9l-9.7-29.8 4.9-16.4 38.2-127.6c6.7-22.7 12.4-41.2 12.5-41 .1.1-.6 33.3-1.6 73.7m392.5-47 98.2 42.8a82 82 0 0 1 13 6.3c-.3 1-76.1 87.8-76.7 87.8-.7.1-3.1-4.5-26.5-49.4-11.4-22-25.3-48.8-31-59.5-26.1-49.8-25.8-49.1-23.3-48.1zm-601.7-7.6c25.4 13.6 43.6 23.3 52 27.6 4.5 2.3 8.2 4.6 8.2 5.2 0 .5-2.9 6.2-6.3 12.6l-27.2 51a801 801 0 0 1-21.2 38.8c-.3-.2-2.7-15.9-5.4-34.8a9909 9909 0 0 0-15.5-105.1q-.4-2.6.5-2.7c.6 0 7.3 3.3 14.9 7.4m358.2 25.1c-8.8 41.9-14.8 80.8-15.1 97.5-.1 9.4-1 8.7-9.2-6.8l-25.7-48.6c-9.9-18.6-18-34.2-18-34.7s9.6-5.7 21.3-11.7c11.6-6.1 28.2-14.8 36.7-19.5 12.3-6.7 15.6-8 15.8-6.7.2.9-2.4 14.6-5.8 30.5m-404-4.8 22.1 68.3a1341 1341 0 0 1 15.4 48.8c-.4.4-9.9-5.4-106.5-64.3l-63.7-38.9a238 238 0 0 1-18.3-11.7c0-.3 19-3.4 42.3-6.8l70.7-10.6 30.1-4.4c1.2-.1 3.1 4.7 7.9 19.6m478.6-15.3 72.2 10.7c23.2 3.5 42.2 6.5 42.2 6.8-.1.3-6.5 4.5-14.3 9.2l-142.6 86.3a1383 1383 0 0 1-37.6 22.4c-.2-.2.4-10.7 1.2-23.3l1.6-23 17.6-35.5c22.6-45.4 29-58 29.5-58zM827 398.8q0 .8-.9 1.7c-.5.6-13.3 25.1-28.6 54.5-29.6 57-31.7 61-32.5 60.9-.3 0-17.4-19.5-38.2-43.2-29.1-33.4-37.2-43.3-36-43.8 1-.3 18.4-4.4 38.7-8.9l66.5-15c33.8-7.8 31-7.2 31-6.2m20.1 25.3 17.6 37.4 23 49c1.7 3.3 3.4 7 3.7 8.2l.7 2.3h-58c-32 0-58.1-.3-58.1-.8s8.3-16.7 18.5-36.2l30.2-58.2a137 137 0 0 1 12.6-21.9c.4.4 4.8 9.5 9.8 20.2M1630 431c36.4 70 46 88.5 46 89.2 0 .5-26.1.8-58 .8s-58-.2-58-.4c0-.7 5.3-12.3 24.5-53.1 26.7-57.1 30.5-64.9 30.9-64.4zm-736.3.1 72.3 44.2 45.3 27.6c8.6 5.3 15.3 9.7 14.8 9.9a753 753 0 0 1-33.6-3.8c-25.2-3.2-33.6-4-36.4-3.2-29 7.7-50.4 13.2-51.4 13.2a147 147 0 0 1-12.2-23.3 6212 6212 0 0 0-34.2-72.7c-6.7-13.9-8.5-18-7.9-18 .3 0 19.7 11.8 43.3 26.1m706.9-22.9c-1.3 3-24.3 52.1-44.4 94.5a72 72 0 0 1-9 16.3 684 684 0 0 1-28.1-7.1l-26.9-7.1-34.6 4.4c-19 2.4-34.6 4.2-34.6 3.8 0-.3 7.8-5.1 17.3-10.8l88.7-53.7a4539 4539 0 0 1 72.3-43.4c.4-.1.1 1.4-.7 3.1M1311 469.1l-27 108.2c-7 28.5-13.1 52.1-13.4 52.4-2.3 2.3-37.6-13.1-37.6-16.4 0-.8 10.1-32.4 22.4-70.1l30.1-92.5 7.7-23.8 15.7-7.8a93 93 0 0 1 15.9-7.2c.1.4-6.1 26.2-13.8 57.2m-156.5-42.7 5 2.7 12.1 37.2C1208.5 579 1219 611.4 1219 613c0 3.3-29.2 17-36.2 17-1.1 0-3.3-7.1-8.2-26.3-5.1-20.1-44.2-177.3-47.1-189.6-.5-2.1.3-1.8 10.7 3.7zm-33.9 4.7c6.6 25.6 49.4 198.5 49.4 199.7 0 1.8-12.5 1.6-18.8-.3a23 23 0 0 1-14.3-12.2c-1-2.3-17-23.2-35.6-46.5s-35.3-44.1-37-46.4l-3.2-4.1 9-16.9 36.5-68.6c5.4-10.2 10-18.5 10.2-18.3s1.9 6.3 3.8 13.6m236.9 27.4c11.9 22.5 24.3 46 27.6 52l5.8 11.1-37.4 46.7a926 926 0 0 0-38.5 50.2c-1.6 4.7-7.9 10.1-14.1 11.9-6.5 2-18.9 2.2-18.9.3 0-1 48.5-196.6 52.1-210.1.6-2.1 1.2-3.6 1.3-3.5zm31.4 108c-2.7 40.4-3 37.4 4.2 51.6 5.6 11.2 5.9 12.1 3.7 11.6l-34.1-7.8c-17.4-4-31.6-7.7-31.5-8.1.3-.9 59.2-74.7 59.4-74.5.1.1-.7 12.3-1.7 27.2m-297.4 10c15.9 20 29.1 36.7 29.2 37.2.2.5-14 4.2-31.4 8.2l-34.1 7.8c-2.2.5-1.9-.4 3.7-11.6 5.3-10.5 6.1-12.8 6.1-17.7 0-5.2-2.5-46.6-3.4-56.2-.2-2.3-.1-4.2.3-4.1.3 0 13.6 16.4 29.6 36.4M956.7 600c.4.4 17.5 9.2 38 19.5 20.4 10.3 37.9 19.2 38.9 19.9 1.5 1.2.8 2.9-8.8 19.2a107 107 0 0 1-11.4 17.6 606 606 0 0 1-24.7-20.9L965 634.6l-11.4-22-11.4-22.1 1.4-8.5c2.5-14.8 2.1-14.9 7.4 1.9 2.7 8.4 5.2 15.7 5.7 16.1m273.4 25.1a166 166 0 0 0 27.8 12.8c19.5 6.3 39 6.7 50.4.9 2.2-1.1 4.1-1.7 4.5-1.4.3.3-.7 12.4-2.3 26.8l-2.7 26.3-3.2 3.4a139 139 0 0 1-24.4 19c-29.2 17.1-59.3 18.8-87.9 5.1a118 118 0 0 1-32-21.7l-7.1-6.8-5.2-24.8a436 436 0 0 1-4.8-25.2c.2-.2 2.4.3 4.8 1.2 10.4 3.6 30.1 2.4 46-2.7a189 189 0 0 0 28.5-13.3c2.7-2.2 4.1-2.1 7.6.4M1087.5 654l-26.1 26-18.1-.2-18.2-.3 10.7-18.5 10.7-18.5 5.5-1.2 31.5-7.2c14.3-3.3 26.9-6 28-6q2-.2-24 25.9m288.5-18.2 29.5 6.7 7.6 13 10.8 18.7 3.2 5.8h-36.6l-26-26.1c-25.3-25.3-25.9-26.1-22-25.4 2.2.3 17.3 3.6 33.5 7.3m-70.7 75.9-3.7 35c-3.7 35.7-1.9 31.2-16.2 40.8-33.4 22.6-70.5 23.7-103.9 3.2-5.8-3.5-7-4.7-7.7-7.7l-8.3-38.4-7.5-35.3c0-.1 3.9 2.6 8.8 6.2 31 23.1 67.1 28.7 100.8 15.6 9.6-3.7 23.4-11.8 31.2-18.2 7-5.8 7.1-5.8 6.5-1.2m-13.7 128.6-5.1 46.9-4 2.4c-25.5 15.8-52.1 19.8-77.8 11.7a99 99 0 0 1-19.8-8.6L1183 854a423 423 0 0 0-3.4-45l-1.6-7.1c0-.3 3.9 1.3 8.8 3.7 33.1 16.4 71 13.3 103.7-8.5a55 55 0 0 1 6.1-3.8c.1.1-2.2 21.3-5 47m-6.6 62.6c0 7.2-8.8 32.4-15.7 45.1-13.1 24-18.6 28.8-41 35.7-12.4 3.8-35.6 4-47.7.5a65 65 0 0 1-17.6-7c0-.4 1.8-3.2 4-6.3 11.2-15.9 18-38.8 18-60.5v-5.1l8.3 3.3a75 75 0 0 0 38.2 6.8c19.6 0 27.4-1.8 43.4-9.8 10.3-5.1 10.1-5.1 10.1-2.7m-322.2 86.4 29.2 13.5c27.3 12.6 44.2 17.8 63.5 19.7 5.4.6 8.3 1.5 12.5 4.1 11 6.5 39 19.6 50.1 23.3l11.2 3.8-8.1 2.2a364 364 0 0 1-36.9 7.8 346 346 0 0 1-72 0c-49.7-9.5-73.3-31.5-73.3-68.6 0-12.9 5.4-14.2 23.8-5.8m222.1 6.9c12.1 2.5 30.5 2 42.1-1.1 4.1-1.1 7.6-1.8 7.8-1.6s-3.8 4-9 8.5a269 269 0 0 1-66 40.6c-7.5 3.2-8.9 3.5-14.3 2.9a202 202 0 0 1-57-19.9l-6.8-3.9 10.9-3.7c24.5-8.3 45-18.9 58.8-30.3l2.9-2.4 10.5 4.5c5.7 2.4 14.8 5.3 20.1 6.4"/></svg></svg>
